<svg width="40" height="40" viewBox="0 0 40 40" fill="none" xmlns="http://www.w3.org/2000/svg">
<rect x="8" y="4" width="16" height="2" fill="#000000"/>
<rect x="8" y="4" width="2" height="34" fill="#000000"/>
<rect x="8" y="36" width="24" height="2" fill="#000000"/>
<rect x="30" y="12" width="2" height="26" fill="#000000"/>
<rect x="24" y="4" width="2" height="2" fill="#000000"/>
<rect x="26" y="6" width="2" height="2" fill="#000000"/>
<rect x="28" y="8" width="2" height="2" fill="#000000"/>
<rect x="30" y="10" width="2" height="2" fill="#000000"/>
<rect x="20" y="16" width="3" height="2" fill="#000000"/>
<rect x="17" y="19" width="3" height="2" fill="#000000"/>
<rect x="20" y="22" width="3" height="2" fill="#000000"/>
<rect x="17" y="25" width="3" height="2" fill="#000000"/>
<rect x="20" y="28" width="3" height="2" fill="#000000"/>
<rect x="17" y="31" width="3" height="2" fill="#000000"/>
<rect x="19" y="13" width="4" height="4" fill="#000000"/>
</svg>
